Coordinates
version=1
nRows=20
nColumns=38
inDegrees=no

Units are S.I. units (second, meters, Newtons, ...)
If the header above contains a line with 'inDegrees', this indicates whether rotational values are in degrees (yes) or radians (no).

endheader
time	pelvis_tilt	pelvis_list	pelvis_rotation	pelvis_tx	pelvis_ty	pelvis_tz	hip_flexion_r	hip_adduction_r	hip_rotation_r	knee_angle_r	ankle_angle_r	subtalar_angle_r	mtp_angle_r	hip_flexion_l	hip_adduction_l	hip_rotation_l	knee_angle_l	ankle_angle_l	subtalar_angle_l	mtp_angle_l	lumbar_extension	lumbar_bending	lumbar_rotation	arm_flex_r	arm_add_r	arm_rot_r	elbow_flex_r	pro_sup_r	wrist_flex_r	wrist_dev_r	arm_flex_l	arm_add_l	arm_rot_l	elbow_flex_l	pro_sup_l	wrist_flex_l	wrist_dev_l
0	2.70453	1.43777	-1.16256	0.66453	-0.270753	0.965211	-0.0817763	0.131733	-0.0606475	0.142367	0.0144706	0	0	0.360237	-0.193909	-0.0922354	1.29209	-0.0157547	0	0	-0.23564	0.0463946	-0.0373967	-0.246631	-0.0654503	-0.548077	0.475329	1.12967	0	0	-0.0905982	-0.407225	0.625518	0.647997	0.542038	0	0
0.01	2.72032	1.43856	-1.1888	0.665576	-0.26281	0.965809	-0.0992298	0.128994	-0.0444924	0.128851	0.0140334	0	0	0.372239	-0.194693	-0.1029	1.26468	-0.00826827	0	0	-0.237557	0.0425637	-0.0289616	-0.242234	-0.0669478	-0.543838	0.474817	1.12664	0	0	-0.089625	-0.40599	0.62947	0.64522	0.539353	0	0
0.02	2.74132	1.43857	-1.21941	0.666202	-0.254554	0.966404	-0.117628	0.125409	-0.0309347	0.115825	0.01479	0	0	0.380518	-0.195015	-0.114638	1.23308	-0.00202097	0	0	-0.240829	0.0387739	-0.0219628	-0.239276	-0.0687068	-0.536912	0.477319	1.1216	0	0	-0.0898797	-0.403888	0.629433	0.642571	0.538768	0	0
0.03	2.76303	1.43873	-1.25029	0.666774	-0.246294	0.966859	-0.134704	0.12126	-0.0188188	0.104843	0.0164539	0	0	0.387165	-0.195561	-0.127887	1.19817	0.00322507	0	0	-0.244212	0.034764	-0.0160638	-0.235414	-0.0702028	-0.531017	0.478617	1.11709	0	0	-0.090419	-0.401828	0.628792	0.639727	0.539875	0	0
0.04	2.7831	1.4389	-1.27905	0.667288	-0.238047	0.967186	-0.150542	0.117008	-0.00798331	0.0955821	0.0185986	0	0	0.392421	-0.196567	-0.14242	1.16048	0.00749209	0	0	-0.24762	0.0309199	-0.0106454	-0.231446	-0.0713694	-0.525458	0.479752	1.11358	0	0	-0.0907081	-0.400176	0.629528	0.63725	0.541052	0	0
0.05	2.80044	1.43907	-1.30454	0.667757	-0.229877	0.967397	-0.16545	0.112908	0.00224461	0.0874208	0.0210472	0	0	0.396304	-0.198038	-0.15849	1.12027	0.0109956	0	0	-0.250959	0.0274439	-0.00534083	-0.227829	-0.0722223	-0.520008	0.481547	1.10952	0	0	-0.0903235	-0.398576	0.631522	0.634574	0.542983	0	0
0.06	2.81504	1.4394	-1.32672	0.668128	-0.221709	0.967436	-0.178812	0.108944	0.0116672	0.0813781	0.0244895	0	0	0.398975	-0.200289	-0.177026	1.07778	0.0145606	0	0	-0.254128	0.0242572	-0.000687124	-0.223988	-0.0728213	-0.514539	0.483358	1.10694	0	0	-0.0901303	-0.397331	0.632781	0.632795	0.54383	0	0
0.07	2.8281	1.4395	-1.34652	0.668447	-0.213547	0.967354	-0.191514	0.10513	0.0198758	0.0768741	0.0283144	0	0	0.399793	-0.202558	-0.197441	1.03269	0.0185003	0	0	-0.257712	0.0214625	0.00303641	-0.220265	-0.0730391	-0.51022	0.486029	1.10432	0	0	-0.0905054	-0.396459	0.632939	0.63203	0.544838	0	0
0.08	2.83379	1.44002	-1.3586	0.668598	-0.205457	0.967099	-0.201925	0.102139	0.0261117	0.0751629	0.0315945	0	0	0.40024	-0.204544	-0.217871	0.98601	0.0228262	0	0	-0.260794	0.0198061	0.00681073	-0.216648	-0.0731858	-0.507962	0.489116	1.10326	0	0	-0.0905076	-0.394959	0.632965	0.630749	0.545712	0	0
0.09	2.84122	1.44009	-1.37399	0.668747	-0.197513	0.966794	-0.211841	0.0983692	0.033904	0.0748402	0.0355056	0	0	0.397987	-0.205731	-0.24049	0.937019	0.0279878	0	0	-0.264902	0.0178338	0.0122248	-0.213452	-0.0736188	-0.505086	0.493917	1.10178	0	0	-0.0897258	-0.392898	0.632709	0.629451	0.546813	0	0
0.1	2.846	1.4404	-1.38472	0.668704	-0.18943	0.966324	-0.221169	0.0950387	0.0398076	0.0749494	0.0405743	0	0	0.395048	-0.205254	-0.261673	0.88529	0.0330018	0	0	-0.26833	0.0165296	0.0156196	-0.211458	-0.0739458	-0.501525	0.500419	1.10007	0	0	-0.08917	-0.391175	0.632243	0.628923	0.547256	0	0
0.11	2.84941	1.44075	-1.39278	0.668508	-0.18125	0.965728	-0.230306	0.0919973	0.044446	0.0754048	0.0460639	0	0	0.391145	-0.203601	-0.283148	0.831663	0.0379305	0	0	-0.271527	0.015604	0.0176856	-0.209653	-0.0743604	-0.497036	0.507083	1.09842	0	0	-0.0890486	-0.389769	0.631834	0.628788	0.547427	0	0
0.12	2.85061	1.44142	-1.39757	0.668237	-0.172929	0.964971	-0.239201	0.0892443	0.0478142	0.0757829	0.0516486	0	0	0.387031	-0.200952	-0.30493	0.77762	0.0426822	0	0	-0.27405	0.0150521	0.0189492	-0.206987	-0.0746381	-0.494636	0.511075	1.09706	0	0	-0.0890454	-0.388356	0.632117	0.628057	0.547537	0	0
0.13	2.85103	1.44253	-1.40075	0.667307	-0.164418	0.964114	-0.247834	0.0866301	0.0493997	0.0757794	0.0579537	0	0	0.38307	-0.196859	-0.325588	0.7236	0.0468463	0	0	-0.275689	0.0149405	0.0198233	-0.205135	-0.075032	-0.493705	0.515795	1.09625	0	0	-0.0889463	-0.386471	0.63312	0.626308	0.547796	0	0
0.14	2.83212	1.4437	-1.38959	0.666452	-0.155954	0.963191	-0.255803	0.0790199	0.0409974	0.0734775	0.070151	0	0	0.379605	-0.187971	-0.342193	0.669905	0.0474611	0	0	-0.277147	0.0174483	0.0228739	-0.202396	-0.0770793	-0.49249	0.52152	1.09569	0	0	-0.0902087	-0.383241	0.633017	0.625188	0.548496	0	0
0.15	2.834	1.44562	-1.39197	0.665678	-0.147231	0.962062	-0.26323	0.0759097	0.0403026	0.0750398	0.07788	0	0	0.375085	-0.182197	-0.362683	0.61425	0.0514663	0	0	-0.277165	0.0169629	0.0214455	-0.201174	-0.0774188	-0.491298	0.526075	1.0953	0	0	-0.0908133	-0.381632	0.632164	0.624195	0.549556	0	0
0.16	2.83606	1.4482	-1.39354	0.66474	-0.138351	0.960793	-0.270104	0.0727552	0.0386816	0.0767395	0.0853797	0	0	0.370775	-0.174703	-0.381563	0.558706	0.0546815	0	0	-0.276163	0.0165362	0.0190705	-0.200369	-0.0778968	-0.490126	0.530548	1.09507	0	0	-0.0919092	-0.379979	0.630856	0.62295	0.55084	0	0
0.17	2.84016	1.45102	-1.39632	0.663663	-0.129325	0.959453	-0.276316	0.0693415	0.0357778	0.0796506	0.0933409	0	0	0.365836	-0.164976	-0.397626	0.502603	0.0576461	0	0	-0.274734	0.0159406	0.0160909	-0.200313	-0.0784409	-0.48872	0.535835	1.09453	0	0	-0.0929374	-0.378214	0.629596	0.620949	0.552076	0	0
0.18	2.85483	1.45424	-1.4094	0.662458	-0.120274	0.958144	-0.281638	0.064439	0.0318136	0.0837662	0.101615	0	0	0.35773	-0.14984	-0.405802	0.440003	0.0590399	0	0	-0.273124	0.0138945	0.012623	-0.199359	-0.0788634	-0.487712	0.539628	1.09337	0	0	-0.0936111	-0.376282	0.628152	0.61791	0.553358	0	0
0.19	2.86972	1.45759	-1.42256	0.661167	-0.111028	0.956773	-0.28607	0.0595137	0.0267614	0.0897647	0.110312	0	0	0.349138	-0.134107	-0.411626	0.378157	0.0606801	0	0	-0.270905	0.0118849	0.00905956	-0.198721	-0.0794855	-0.486797	0.543275	1.09213	0	0	-0.0948201	-0.374153	0.625981	0.61464	0.555015	0	0
